<svg width="584" height="387" viewBox="0 0 584 387" fill="none" xmlns="http://www.w3.org/2000/svg">
<g clip-path="url(#clip0_3279_170)">
<path d="M573.734 22.0638L528.525 7.59713C527.784 7.36003 526.979 7.42698 526.288 7.78325C525.596 8.13953 525.075 8.75595 524.837 9.4969L510.371 54.7053C510.253 55.0722 510.209 55.4586 510.241 55.8425C510.273 56.2264 510.38 56.6002 510.557 56.9427C510.733 57.2851 510.975 57.5894 511.269 57.8383C511.563 58.0872 511.904 58.2757 512.271 58.3931L536.602 66.1791L542.9 46.4957L536.297 44.3825L538.735 36.7632L545.339 38.8763L547.167 33.1617C547.46 31.7763 548.052 30.4717 548.902 29.3393C549.752 28.207 550.84 27.2743 552.088 26.6068C553.337 25.9393 554.717 25.553 556.131 25.4751C557.544 25.3972 558.958 25.6296 560.273 26.1559C562.253 26.7764 564.197 27.5104 566.093 28.3544L563.899 35.2118L559.86 33.9196C556.66 32.8956 555.563 34.2244 554.856 36.434L553.287 41.3358L560.907 43.774L557.478 51.0764L550.849 48.9552L544.526 68.7148L557.479 72.8598C557.846 72.9772 558.232 73.0212 558.616 72.9892C559 72.9573 559.374 72.8501 559.716 72.6737C560.059 72.4973 560.363 72.2551 560.612 71.9611C560.861 71.6671 561.049 71.3269 561.167 70.96L575.633 25.7516C575.751 25.3847 575.795 24.9983 575.763 24.6144C575.731 24.2305 575.624 23.8567 575.447 23.5143C575.271 23.1718 575.029 22.8675 574.735 22.6186C574.441 22.3697 574.101 22.1812 573.734 22.0638Z" fill="#3A559F"/>
</g>
<g clip-path="url(#clip1_3279_170)">
<path d="M68.5187 275.457C69.5355 271.776 69.6056 267.897 68.7225 264.182C67.9106 262.549 66.5517 261.254 64.8826 260.52C57.8233 258.138 50.6415 256.136 43.3683 254.521C36.1797 252.668 28.8977 251.2 21.553 250.121C20.0695 250.04 18.5942 250.392 17.3073 251.134C14.458 252.728 13.3171 256.348 12.3129 259.398C10.5972 264.904 9.25333 270.518 8.29024 276.204C7.94599 277.973 7.79061 279.774 7.82671 281.577C7.82588 282.961 8.16846 284.325 8.82377 285.545C9.62953 286.844 10.8071 287.871 12.2037 288.492C17.6297 290.521 23.1949 292.155 28.856 293.383C37.9019 295.686 45.8947 297.462 55.4826 298.989C57.0412 299.092 58.5943 298.718 59.9347 297.916C60.8346 297.363 61.5897 296.604 62.1374 295.701C63.7461 293.077 64.9146 290.208 65.5966 287.206C66.048 285.779 68.1462 277.013 68.5187 275.457ZM30.9394 280.556L34.782 264.503L48.2043 276.243C43.3281 277.599 37.003 278.936 30.9394 280.556Z" fill="#FF0100"/>
</g>
<path d="M492.166 160.455C491.069 160.575 490.032 161.018 489.186 161.727C488.34 162.436 487.724 163.38 487.415 164.439C487.106 165.499 487.118 166.626 487.449 167.679C487.781 168.731 488.417 169.662 489.278 170.353C490.138 171.044 491.184 171.465 492.284 171.561C493.383 171.658 494.486 171.426 495.454 170.895C496.422 170.365 497.21 169.559 497.72 168.581C498.23 167.602 498.438 166.494 498.319 165.397C498.239 164.668 498.017 163.963 497.665 163.32C497.312 162.678 496.837 162.111 496.266 161.652C495.694 161.193 495.038 160.851 494.335 160.646C493.631 160.441 492.894 160.376 492.166 160.455ZM513.778 152.55C513.577 150.824 513.072 149.147 512.286 147.598C511.708 146.464 510.896 145.466 509.904 144.669C508.912 143.872 507.762 143.295 506.531 142.975C504.848 142.542 503.102 142.411 501.373 142.588C498.471 142.746 497.621 142.839 490.329 143.635C483.037 144.432 482.187 144.525 479.319 144.996C477.593 145.197 475.916 145.702 474.367 146.488C473.233 147.066 472.235 147.878 471.438 148.87C470.641 149.862 470.064 151.012 469.744 152.244C469.311 153.926 469.18 155.673 469.357 157.401C469.515 160.304 469.608 161.153 470.405 168.445C471.201 175.737 471.294 176.587 471.765 179.455C471.979 181.186 472.484 182.868 473.259 184.43C473.835 185.558 474.645 186.55 475.637 187.339C476.626 188.141 477.778 188.718 479.013 189.03C480.695 189.463 482.442 189.594 484.17 189.417C487.073 189.259 487.923 189.166 495.214 188.37C502.506 187.573 503.356 187.48 506.224 187.009C507.95 186.808 509.627 186.303 511.176 185.517C512.315 184.947 513.316 184.135 514.108 183.137C514.905 182.153 515.483 181.01 515.801 179.784C516.233 178.093 516.363 176.34 516.186 174.604C516.028 171.701 515.935 170.851 515.139 163.56C514.342 156.268 514.249 155.418 513.778 152.55ZM510.051 171.064C510.13 172.452 509.984 173.844 509.618 175.185C509.301 176.306 508.762 177.351 508.033 178.259C507.304 179.166 506.4 179.918 505.374 180.47C504.128 181.089 502.79 181.503 501.411 181.695C499.644 181.888 499.175 181.939 494.567 182.442C489.959 182.945 489.49 182.997 487.723 183.19C486.335 183.3 484.939 183.185 483.589 182.849C482.435 182.558 481.361 182.01 480.449 181.245C479.55 180.531 478.819 179.63 478.304 178.605C477.683 177.36 477.276 176.02 477.102 174.64C476.909 172.873 476.857 172.403 476.354 167.795C475.851 163.188 475.8 162.718 475.607 160.951C475.479 159.566 475.587 158.169 475.925 156.82C476.216 155.665 476.764 154.592 477.529 153.679C478.247 152.785 479.147 152.054 480.169 151.535C481.415 150.916 482.753 150.502 484.132 150.31C485.899 150.117 486.369 150.066 490.976 149.563C495.584 149.06 496.054 149.008 497.821 148.815C499.208 148.705 500.604 148.82 501.954 149.156C503.109 149.447 504.182 149.995 505.095 150.76C505.993 151.473 506.724 152.374 507.239 153.4C507.858 154.646 508.272 155.984 508.464 157.363C508.657 159.13 508.708 159.6 509.211 164.207C509.715 168.815 509.922 169.267 510.048 171.042L510.051 171.064ZM504.655 154.814C504.309 154.12 503.818 153.51 503.214 153.025C502.61 152.54 501.908 152.192 501.156 152.004C500.127 151.769 499.064 151.716 498.016 151.849C496.271 152.04 495.779 152.094 491.306 152.582C486.833 153.071 486.341 153.125 484.596 153.315C483.542 153.441 482.518 153.752 481.573 154.234C480.889 154.566 480.284 155.039 479.797 155.623C479.311 156.207 478.954 156.888 478.751 157.62C478.535 158.652 478.49 159.712 478.619 160.758C478.809 162.503 478.863 162.995 479.351 167.468C479.84 171.941 479.894 172.434 480.084 174.178C480.221 175.23 480.532 176.251 481.003 177.201C481.348 177.895 481.84 178.505 482.443 178.99C483.047 179.475 483.749 179.823 484.501 180.011C485.494 180.257 486.519 180.344 487.539 180.267C489.284 180.077 489.776 180.023 494.249 179.535C498.723 179.046 499.215 178.992 500.959 178.802C502.013 178.676 503.037 178.365 503.983 177.883C504.676 177.538 505.286 177.046 505.771 176.442C506.256 175.838 506.605 175.137 506.792 174.385C507.059 173.358 507.141 172.291 507.036 171.235C506.846 169.49 506.792 168.998 506.304 164.525C505.815 160.051 505.761 159.559 505.571 157.815C505.456 156.758 505.145 155.733 504.652 154.791L504.655 154.814ZM493.705 174.547C492.584 174.669 491.45 174.569 490.367 174.253C489.285 173.936 488.276 173.409 487.397 172.702C486.519 171.994 485.789 171.121 485.249 170.131C484.709 169.141 484.369 168.054 484.25 166.933C484.065 165.242 484.386 163.535 485.173 162.026C485.959 160.518 487.175 159.277 488.667 158.461C490.159 157.644 491.86 157.288 493.554 157.439C495.248 157.589 496.86 158.239 498.185 159.306C499.509 160.372 500.488 161.808 500.996 163.431C501.504 165.055 501.52 166.792 501.04 168.424C500.56 170.056 499.607 171.509 498.302 172.599C496.996 173.688 495.396 174.366 493.705 174.547ZM500.968 158.159C500.468 158.16 499.985 157.977 499.612 157.644C499.239 157.31 499.003 156.851 498.949 156.354C498.894 155.856 499.026 155.357 499.318 154.951C499.61 154.545 500.043 154.261 500.531 154.155C501.031 154.153 501.514 154.337 501.887 154.67C502.26 155.003 502.497 155.463 502.551 155.96C502.605 156.457 502.474 156.957 502.181 157.363C501.889 157.769 501.457 158.052 500.968 158.159Z" fill="url(#paint0_radial_3279_170)"/>
<path d="M79.5 39.0529C77.8088 39.7866 76.0202 40.2717 74.19 40.4929C76.1209 39.3394 77.5679 37.5247 78.2625 35.3854C76.448 36.4656 74.4617 37.2266 72.39 37.6354C71.0052 36.1337 69.1612 35.1341 67.1471 34.7933C65.133 34.4526 63.0627 34.79 61.261 35.7526C59.4593 36.7152 58.0281 38.2486 57.1918 40.1123C56.3555 41.976 56.1614 44.0645 56.64 46.0504C52.9712 45.8648 49.3825 44.9096 46.107 43.2466C42.8315 41.5836 39.9424 39.2502 37.6275 36.3979C36.8156 37.8158 36.3889 39.4215 36.39 41.0554C36.3871 42.5728 36.7595 44.0673 37.4739 45.4059C38.1884 46.7446 39.2228 47.8858 40.485 48.7279C39.0179 48.688 37.5822 48.2943 36.3 47.5804V47.6929C36.311 49.8189 37.056 51.8759 38.409 53.5158C39.7619 55.1558 41.6398 56.2781 43.725 56.6929C42.9223 56.9372 42.089 57.066 41.25 57.0754C40.6693 57.0686 40.09 57.016 39.5175 56.9179C40.1113 58.7467 41.2604 60.345 42.8049 61.4903C44.3494 62.6356 46.2125 63.2709 48.135 63.3079C44.8887 65.8623 40.8807 67.2563 36.75 67.2679C35.9979 67.2704 35.2464 67.2253 34.5 67.1329C38.7175 69.856 43.6323 71.3015 48.6525 71.2954C52.1168 71.3314 55.5536 70.6767 58.762 69.3696C61.9705 68.0625 64.8863 66.1292 67.3392 63.6825C69.7921 61.2359 71.7329 58.325 73.0483 55.12C74.3636 51.9149 75.0271 48.4798 75 45.0154C75 44.6329 75 44.2279 75 43.8229C76.7656 42.5062 78.2883 40.8921 79.5 39.0529Z" fill="#50ABF1"/>
<path d="M512.761 352.986L512.002 351.275C511.371 351.454 510.752 351.676 510.151 351.94C502.816 355.195 499.495 363.814 502.749 371.151C504.745 375.652 508.761 378.638 513.26 379.524C509.873 378.087 507.16 375.415 505.67 372.05C502.462 364.818 505.645 356.346 512.761 352.986Z" fill="#00F2EA"/>
<path d="M521.667 372.228C524.941 370.775 526.455 366.986 525.138 363.687L512.3 334.71L517.592 332.361C517.211 331.806 516.881 331.218 516.608 330.603L509.38 333.81L522.217 362.789C523.536 366.087 522.019 369.875 518.747 371.327C517.765 371.764 516.691 371.954 515.618 371.881C517.461 372.964 519.712 373.093 521.667 372.228ZM531.839 337.809L531.125 336.199C529.181 337.064 527.027 337.342 524.927 337.001C527.083 338.011 529.509 338.294 531.84 337.808" fill="#00F2EA"/>
<path d="M524.927 336.991C522.522 335.874 520.604 333.921 519.529 331.496L517.593 332.355C519.3 334.838 521.951 336.514 524.927 336.991ZM513.357 359.166C510.005 360.659 508.492 364.583 509.976 367.94C510.98 370.197 513.153 371.712 515.618 371.874C514.414 371.175 513.462 370.113 512.897 368.84C511.413 365.484 512.924 361.558 516.277 360.066C516.903 359.788 517.549 359.625 518.195 359.551L514.922 352.171C514.29 352.35 513.672 352.573 513.071 352.836C512.966 352.883 512.865 352.935 512.761 352.983L515.275 358.652C514.613 358.725 513.967 358.898 513.357 359.166Z" fill="#FF004F"/>
<path d="M531.839 337.806L534.331 343.425C530.582 345.088 526.579 345.43 522.841 344.653L529.356 359.344C532.61 366.681 529.29 375.299 521.954 378.554C519.119 379.812 516.094 380.084 513.26 379.526C516.973 381.12 521.181 381.094 524.874 379.454C532.21 376.198 535.531 367.581 532.277 360.245L525.762 345.553C529.625 346.36 533.646 345.931 537.252 344.325L534.045 337.094C533.322 337.415 532.583 337.649 531.838 337.805" fill="#FF004F"/>
<path d="M529.355 359.34L522.84 344.649C526.704 345.456 530.724 345.026 534.33 343.42L531.839 337.802C529.508 338.287 527.082 338.003 524.926 336.993C521.95 336.515 519.3 334.84 517.592 332.356L512.301 334.705L525.138 363.681C526.456 366.98 524.941 370.769 521.667 372.221C519.713 373.086 517.461 372.957 515.619 371.874C513.154 371.713 510.981 370.199 509.976 367.941C508.492 364.584 510.005 360.66 513.357 359.167C513.982 358.89 514.628 358.726 515.275 358.653L512.761 352.984C505.644 356.344 502.462 364.816 505.669 372.048C507.22 375.546 509.991 378.127 513.26 379.522C516.189 380.103 519.225 379.763 521.953 378.55C529.29 375.294 532.609 366.677 529.355 359.34Z" fill="black"/>
<defs>
<radialGradient id="paint0_radial_3279_170" cx="0" cy="0" r="1" gradientUnits="userSpaceOnUse" gradientTransform="translate(485.106 192.96) rotate(-96.2324) scale(44.5983 41.4799)">
<stop stop-color="#FFDD55"/>
<stop offset="0.1" stop-color="#FFDD55"/>
<stop offset="0.5" stop-color="#FF543E"/>
<stop offset="1" stop-color="#C837AB"/>
</radialGradient>
<clipPath id="clip0_3279_170">
<rect width="64" height="64" fill="white" transform="translate(522.277) rotate(17.7447)"/>
</clipPath>
<clipPath id="clip1_3279_170">
<rect width="64" height="64" fill="white" transform="translate(14.8984 236) rotate(13.4614)"/>
</clipPath>
</defs>
</svg>
