<svg width="1440" height="335" viewBox="0 0 1440 335" fill="none" xmlns="http://www.w3.org/2000/svg">
<path fill-rule="evenodd" clip-rule="evenodd" d="M626.652 219.618C501.999 171.751 395.788 136.186 270.061 150.059C220.139 155.568 154.294 173.433 93.0767 195.277C30.3191 217.671 -17.2127 240.536 -33.7704 252.16L-118.23 131.845C-84.4541 108.135 -20.9859 79.9002 43.6732 56.8277C109.873 33.2054 187.861 11.2373 253.939 3.94595C418.212 -14.1807 554.001 34.2543 679.348 82.3875C706.782 92.9221 731.77 103.157 755.824 113.01C791.944 127.805 825.96 141.738 862.995 154.529C921.334 174.679 975.904 187.502 1031 187.502C1227.73 187.502 1389.01 79.6657 1474.02 18.381L1611 187.502C1524.01 250.218 1278.27 334.502 1031 334.502C953.096 334.502 881.165 316.326 815.005 293.476C775.405 279.798 733.269 262.61 693.408 246.35C670.052 236.823 647.478 227.615 626.652 219.618Z" fill="#D5C8FA"/>
</svg>
