<svg width="7" height="12" viewBox="0 0 7 12" fill="none" xmlns="http://www.w3.org/2000/svg">
<path fill-rule="evenodd" clip-rule="evenodd" d="M0.1331 10.8605C-0.0401268 10.6681 -0.0245935 10.3717 0.167794 10.1985L4.83022 6.00046L0.167794 1.80239C-0.0245934 1.62917 -0.0401268 1.33278 0.1331 1.14039C0.306327 0.948002 0.602716 0.932469 0.795104 1.1057L5.75489 5.57151C5.80496 5.5969 5.85129 5.63178 5.8911 5.676C5.97441 5.76852 6.01406 5.88509 6.01138 6.00046C6.01406 6.11582 5.97441 6.2324 5.8911 6.32492C5.85129 6.36914 5.80496 6.40402 5.75489 6.42941L0.795104 10.8952C0.602716 11.0684 0.306327 11.0529 0.1331 10.8605Z" fill="black"/>
</svg>
