<svg width="40" height="40" viewBox="0 0 40 40" fill="none" xmlns="http://www.w3.org/2000/svg">
<g clip-path="url(#clip0_3207_191)">
<path d="M0.111084 19.8906V-0.109375H20.1111H40.1111V19.8906V39.8906H20.1111H0.111084V19.8906ZM25.5726 29.208L30.9444 26.1086V19.8906V13.6726L25.5726 10.5733C22.6181 8.86866 20.1604 7.47396 20.1111 7.47396C20.0617 7.47396 17.6041 8.86866 14.6496 10.5733L9.27775 13.6726V14.8906V16.1086L14.6496 19.208C17.6041 20.9126 20.0621 22.3073 20.1118 22.3073C20.1616 22.3073 21.6313 21.4823 23.378 20.474C25.1247 19.4656 26.5667 18.6406 26.5824 18.6406C26.5982 18.6406 26.6105 19.775 26.6097 21.1615L26.6084 23.6823L23.426 25.5156C21.6757 26.524 20.2031 27.3595 20.1534 27.3725C20.1038 27.3854 18.632 26.5698 16.8827 25.56C15.1335 24.5502 13.6618 23.724 13.6122 23.724C13.4516 23.724 9.43666 26.0756 9.4629 26.1543C9.4951 26.2509 19.9484 32.2969 20.0935 32.3029C20.1525 32.3053 22.6181 30.9126 25.5726 29.208ZM17.8834 16.1544C16.7269 15.4822 15.7806 14.9135 15.7805 14.8906C15.78 14.8172 19.9812 12.4323 20.1111 12.4323C20.2408 12.4323 24.442 14.817 24.442 14.8906C24.442 14.9562 20.2546 17.3473 20.1129 17.3627C20.0431 17.3703 19.0399 16.8266 17.8834 16.1544Z" fill="black"/>
</g>
<defs>
<clipPath id="clip0_3207_191">
<rect width="40" height="40" rx="20" fill="white"/>
</clipPath>
</defs>
</svg>
