<svg width="40" height="40" viewBox="0 0 40 40" fill="none" xmlns="http://www.w3.org/2000/svg">
<path d="M20 40C31.0457 40 40 31.0457 40 20C40 8.9543 31.0457 0 20 0C8.9543 0 0 8.9543 0 20C0 31.0457 8.9543 40 20 40Z" fill="url(#paint0_linear_3207_165)"/>
<path opacity="0.9" d="M3.75715 19.9814L3.55566 21.8036L3.75715 23.6258C3.75715 23.7265 3.85789 23.7265 3.85789 23.7265C3.95863 23.7265 3.95863 23.6258 3.95863 23.6258L4.26085 21.8036L3.95863 19.9814C3.95863 19.8806 3.85789 19.8806 3.85789 19.8806C3.85789 19.8806 3.75715 19.8806 3.75715 19.9814ZM4.97196 18.8703L4.66974 21.8036L4.97196 24.7369C4.97196 24.8377 5.0727 24.8377 5.0727 24.8377C5.17344 24.8377 5.17344 24.7369 5.17344 24.7369L5.57937 21.8036L5.17344 18.8703C5.17344 18.7695 5.0727 18.7695 5.0727 18.7695L4.97196 18.8703ZM8.81789 18.4643L8.61641 21.8036L8.81789 25.3443C8.81789 25.4451 8.91863 25.5458 9.01937 25.5458C9.12011 25.5458 9.22085 25.4451 9.22085 25.3443L9.62678 21.8036L9.32455 18.4643C9.32455 18.3636 9.22381 18.2628 9.12307 18.2628C8.91863 18.2628 8.81789 18.3636 8.81789 18.4643ZM6.28752 18.2628L5.98529 21.8036L6.28752 25.1428C6.28752 25.2436 6.38826 25.3443 6.489 25.3443C6.489 25.3443 6.58974 25.2436 6.58974 25.1428L6.89196 21.8036L6.58974 18.2628C6.58974 18.1621 6.489 18.0614 6.38826 18.0614C6.38826 18.1591 6.28752 18.1591 6.28752 18.2628ZM7.50233 18.1591L7.20011 21.8036L7.50233 25.2436C7.50233 25.3443 7.60307 25.4451 7.70381 25.4451C7.80455 25.4451 7.90529 25.3443 7.90529 25.2436L8.20752 21.8036L7.90529 18.1591C7.90529 18.0584 7.80455 17.9577 7.70381 17.9577C7.60307 17.9577 7.60307 18.0584 7.50233 18.1591ZM10.1334 16.3399L9.83122 21.8036L10.1334 25.3443C10.1334 25.4451 10.2342 25.5458 10.3349 25.5458C10.5364 25.5458 10.6371 25.4451 10.6371 25.3443L10.9394 21.8036L10.6371 16.3399C10.6371 16.2391 10.5364 16.1384 10.4357 16.1384C10.2342 16.1354 10.1334 16.2391 10.1334 16.3399ZM11.449 15.1251L11.2475 21.8036L11.449 25.3443C11.449 25.5458 11.5497 25.6465 11.7512 25.6465C11.852 25.6465 12.0534 25.5458 12.0534 25.3443L12.3557 21.8036L12.0534 15.1251C12.0534 14.9236 11.9527 14.8228 11.7512 14.8228C11.5497 14.8199 11.449 14.9236 11.449 15.1251ZM16.812 14.8199L16.6105 21.8036L16.812 25.1428C16.812 25.3443 17.0134 25.5488 17.2179 25.5488C17.4223 25.5488 17.6238 25.3473 17.6238 25.1428L17.8253 21.8036L17.6238 14.7191C17.6238 14.5177 17.4223 14.3132 17.2179 14.3132C16.9127 14.4169 16.812 14.5177 16.812 14.8199ZM12.7646 14.5177L12.5631 21.8036L12.7646 25.2436C12.7646 25.4451 12.8653 25.5458 13.0668 25.5458C13.2683 25.5458 13.369 25.4451 13.369 25.2436L13.5705 21.8036L13.369 14.5177C13.369 14.3162 13.2683 14.2154 13.0668 14.2154C12.8653 14.2125 12.7646 14.4169 12.7646 14.5177ZM15.3957 14.5177L15.1942 21.8036L15.3957 25.2436C15.3957 25.4451 15.5971 25.6495 15.8016 25.6495C16.0031 25.6495 16.2075 25.448 16.2075 25.2436L16.409 21.8036L16.2075 14.5177C16.2075 14.3162 16.006 14.1117 15.8016 14.1117C15.5971 14.1117 15.3957 14.3162 15.3957 14.5177ZM14.0801 14.3162L13.8786 21.8036L14.0801 25.2436C14.0801 25.4451 14.1809 25.5458 14.3823 25.5458C14.5838 25.5458 14.6846 25.4451 14.6846 25.2436L14.886 21.8036L14.6846 14.3162C14.6846 14.1147 14.4831 14.014 14.3823 14.014C14.2816 14.011 14.0801 14.1117 14.0801 14.3162ZM18.1275 13.4036L17.926 21.8036L18.1275 25.1428C18.1275 25.3443 18.329 25.5488 18.5334 25.5488C18.7349 25.5488 18.9394 25.3473 18.9394 25.1428L19.1408 21.8036L18.9394 13.4036C18.9394 13.2021 18.7379 12.9977 18.5334 12.9977C18.329 13.0006 18.1275 13.2021 18.1275 13.4036ZM19.5438 12.6954L19.3423 21.8036L19.5438 25.1428C19.5438 25.3443 19.7453 25.5488 19.9497 25.5488C20.1512 25.5488 20.3557 25.3473 20.3557 25.1428L20.5571 21.8036L20.3557 12.6954C20.3557 12.494 20.1542 12.2895 19.9497 12.2895H19.849C19.6446 12.2925 19.5438 12.494 19.5438 12.6954ZM21.1646 11.7858C20.8623 11.8865 20.7586 11.9873 20.7586 12.2925V25.1458C20.7586 25.3473 20.9601 25.5517 21.1646 25.6525H32.3971C34.6223 25.6525 36.4446 23.8303 36.4446 21.6051C36.4446 19.3799 34.6223 17.5577 32.3971 17.5577C31.8905 17.5577 31.2831 17.6584 30.8801 17.8599C30.5779 14.2154 27.5408 11.3828 23.7957 11.3828C23.5942 11.3828 23.4934 11.3828 23.289 11.3828C22.5808 11.3799 21.8727 11.5814 21.1646 11.7858Z" fill="white"/>
<defs>
<linearGradient id="paint0_linear_3207_165" x1="20" y1="4.89073" x2="20" y2="38.5727" gradientUnits="userSpaceOnUse">
<stop stop-color="#F8A01D"/>
<stop offset="0.4727" stop-color="#F26E23"/>
<stop offset="1" stop-color="#EF5826"/>
</linearGradient>
</defs>
</svg>
