<svg width="40" height="40" viewBox="0 0 40 40" fill="none" xmlns="http://www.w3.org/2000/svg">
<g clip-path="url(#clip0_3207_125)">
<path d="M20 40C31.0457 40 40 31.0457 40 20C40 8.9543 31.0457 0 20 0C8.9543 0 0 8.9543 0 20C0 31.0457 8.9543 40 20 40Z" fill="#DA0000"/>
<path d="M32.7764 13.5796C32.4682 12.433 31.5675 11.5292 30.4179 11.2211C28.3379 10.6641 20.0001 10.6641 20.0001 10.6641C20.0001 10.6641 11.6623 10.6641 9.5823 11.2211C8.43564 11.5292 7.53193 12.43 7.22378 13.5796C6.66675 15.6596 6.66675 19.9974 6.66675 19.9974C6.66675 19.9974 6.66675 24.3352 7.22378 26.4152C7.52897 27.5618 8.43267 28.4655 9.5823 28.7737C11.6623 29.3307 20.0001 29.3307 20.0001 29.3307C20.0001 29.3307 28.3379 29.3307 30.4179 28.7737C31.5645 28.4655 32.4682 27.5648 32.7764 26.4152C33.3334 24.3352 33.3334 19.9974 33.3334 19.9974C33.3334 19.9974 33.3334 15.6596 32.7764 13.5796ZM17.3334 23.9974V15.9974L24.2608 19.9974L17.3334 23.9974Z" fill="white"/>
</g>
<defs>
<clipPath id="clip0_3207_125">
<rect width="40" height="40" fill="white"/>
</clipPath>
</defs>
</svg>
