<svg width="156" height="65" viewBox="0 0 156 65" fill="none" xmlns="http://www.w3.org/2000/svg">
<path d="M8.88281 46.293C13.0312 46.293 15.9258 43.9023 16.3242 40.1289H12.8789C12.5039 42.1328 10.9922 43.3633 8.89453 43.3633C6.1875 43.3633 4.48828 41.1367 4.48828 37.5273C4.48828 33.9648 6.21094 31.7266 8.88281 31.7266C10.9453 31.7266 12.5391 33.0859 12.8672 35.1602H16.3125C16.043 31.375 12.9492 28.7969 8.88281 28.7969C3.98438 28.7969 0.878906 32.0898 0.878906 37.5391C0.878906 43 3.96094 46.293 8.88281 46.293ZM27.3445 28.7969C22.3289 28.7969 19.1883 32.1602 19.1883 37.5508C19.1883 42.9297 22.3289 46.293 27.3445 46.293C32.3484 46.293 35.5008 42.9297 35.5008 37.5508C35.5008 32.1602 32.3484 28.7969 27.3445 28.7969ZM27.3445 31.75C30.1102 31.75 31.8797 34 31.8797 37.5508C31.8797 41.0898 30.1102 43.3281 27.3445 43.3281C24.5672 43.3281 22.7977 41.0898 22.7977 37.5508C22.7977 34 24.5789 31.75 27.3445 31.75ZM42.3727 46V34.9258H42.4781L50.3883 46H53.318V29.0898H49.9313V40.1055H49.8375L41.9391 29.0898H38.9859V46H42.3727ZM66.2133 46L71.8969 29.0898H68.0414L64.1742 42.3555H64.0922L60.225 29.0898H56.2641L61.9477 46H66.2133ZM86.0344 43.0703H78.3703V38.8047H85.6008V36.0859H78.3703V32.0078H86.0344V29.0898H74.8313V46H86.0344V43.0703ZM93.3281 31.8555H96.3398C98.0977 31.8555 99.1992 32.9102 99.1992 34.5508C99.1992 36.2266 98.1562 37.2461 96.375 37.2461H93.3281V31.8555ZM93.3281 39.8125H96.1641L99.3164 46H103.324L99.7617 39.2852C101.707 38.5234 102.832 36.6484 102.832 34.4805C102.832 31.1406 100.605 29.0898 96.7148 29.0898H89.7891V46H93.3281V39.8125ZM113.946 46V32.0078H118.845V29.0898H105.52V32.0078H110.407V46H113.946Z" fill="white"/>
<path d="M130.396 46C129.46 46 128.56 45.964 127.696 45.892C126.868 45.82 126.184 45.604 125.644 45.244C125.104 44.848 124.834 44.146 124.834 43.138C124.834 42.958 124.834 42.778 124.834 42.598C124.87 42.382 124.906 42.166 124.942 41.95C125.158 40.906 125.608 39.466 126.292 37.63C126.976 35.758 127.804 33.742 128.776 31.582C129.748 29.422 130.738 27.37 131.746 25.426C130.738 26.182 129.73 26.992 128.722 27.856C127.714 28.72 126.58 29.692 125.32 30.772C125.212 30.88 125.086 30.934 124.942 30.934C124.762 30.934 124.6 30.826 124.456 30.61C124.348 30.394 124.294 30.16 124.294 29.908C124.294 29.476 124.438 29.134 124.726 28.882C127.426 26.578 129.586 24.67 131.206 23.158C132.862 21.646 134.23 20.296 135.31 19.108C136.174 18.172 137.074 17.488 138.01 17.056C138.946 16.624 140.08 16.408 141.412 16.408C142.312 16.408 143.356 16.516 144.544 16.732C145.012 16.84 145.246 16.984 145.246 17.164C145.246 17.344 145.03 17.596 144.598 17.92C144.022 18.316 143.302 19.108 142.438 20.296C141.61 21.448 140.71 22.87 139.738 24.562C138.766 26.218 137.776 28.036 136.768 30.016C135.796 31.96 134.878 33.922 134.014 35.902C133.15 37.882 132.394 39.754 131.746 41.518C131.134 43.246 130.684 44.74 130.396 46ZM141.138 41.1836C141.243 44.3594 143.833 46.293 147.899 46.293C152.095 46.293 154.755 44.2188 154.755 40.9375C154.755 38.3594 153.278 36.9062 149.891 36.1797L147.841 35.7461C145.895 35.3008 145.075 34.7148 145.075 33.6719C145.075 32.418 146.247 31.5859 147.993 31.5859C149.763 31.5859 151.016 32.4531 151.134 33.8828H154.45C154.391 30.8242 151.919 28.7969 147.981 28.7969C144.208 28.7969 141.513 30.8594 141.513 33.9766C141.513 36.4492 143.048 38.0312 146.165 38.6992L148.368 39.1797C150.407 39.6367 151.216 40.2461 151.216 41.3477C151.216 42.5898 149.927 43.4922 148.04 43.4922C146.165 43.4922 144.712 42.5781 144.548 41.1836H141.138Z" fill="white"/>
</svg>
