<svg width="155" height="30" viewBox="0 0 155 30" fill="none" xmlns="http://www.w3.org/2000/svg">
<path d="M8.88281 29.8867C13.0312 29.8867 15.9258 27.4961 16.3242 23.7227H12.8789C12.5039 25.7266 10.9922 26.957 8.89453 26.957C6.1875 26.957 4.48828 24.7305 4.48828 21.1211C4.48828 17.5586 6.21094 15.3203 8.88281 15.3203C10.9453 15.3203 12.5391 16.6797 12.8672 18.7539H16.3125C16.043 14.9688 12.9492 12.3906 8.88281 12.3906C3.98438 12.3906 0.878906 15.6836 0.878906 21.1328C0.878906 26.5938 3.96094 29.8867 8.88281 29.8867Z" fill="#7252FA"/>
<path d="M27.3445 12.3906C22.3289 12.3906 19.1883 15.7539 19.1883 21.1445C19.1883 26.5234 22.3289 29.8867 27.3445 29.8867C32.3484 29.8867 35.5008 26.5234 35.5008 21.1445C35.5008 15.7539 32.3484 12.3906 27.3445 12.3906ZM27.3445 15.3438C30.1102 15.3438 31.8797 17.5938 31.8797 21.1445C31.8797 24.6836 30.1102 26.9219 27.3445 26.9219C24.5672 26.9219 22.7977 24.6836 22.7977 21.1445C22.7977 17.5938 24.5789 15.3438 27.3445 15.3438Z" fill="#7252FA"/>
<path d="M42.3727 29.5938V18.5195H42.4781L50.3883 29.5938H53.318V12.6836H49.9313V23.6992H49.8375L41.9391 12.6836H38.9859V29.5938H42.3727Z" fill="#7252FA"/>
<path d="M66.2133 29.5938L71.8969 12.6836H68.0414L64.1742 25.9492H64.0922L60.225 12.6836H56.2641L61.9477 29.5938H66.2133Z" fill="#7252FA"/>
<path d="M86.0344 26.6641H78.3703V22.3984H85.6008V19.6797H78.3703V15.6016H86.0344V12.6836H74.8313V29.5938H86.0344V26.6641Z" fill="#7252FA"/>
<path d="M93.3281 15.4492H96.3398C98.0977 15.4492 99.1992 16.5039 99.1992 18.1445C99.1992 19.8203 98.1562 20.8398 96.375 20.8398H93.3281V15.4492ZM93.3281 23.4062H96.1641L99.3164 29.5938H103.324L99.7617 22.8789C101.707 22.1172 102.832 20.2422 102.832 18.0742C102.832 14.7344 100.605 12.6836 96.7148 12.6836H89.7891V29.5938H93.3281V23.4062Z" fill="#7252FA"/>
<path d="M113.946 29.5938V15.6016H118.845V12.6836H105.52V15.6016H110.407V29.5938H113.946Z" fill="#7252FA"/>
<path d="M130.396 29.592C129.46 29.592 128.56 29.556 127.696 29.484C126.868 29.412 126.184 29.196 125.644 28.836C125.104 28.44 124.834 27.738 124.834 26.73C124.834 26.55 124.834 26.37 124.834 26.19C124.87 25.974 124.906 25.758 124.942 25.542C125.158 24.498 125.608 23.058 126.292 21.222C126.976 19.35 127.804 17.334 128.776 15.174C129.748 13.014 130.738 10.962 131.746 9.018C130.738 9.774 129.73 10.584 128.722 11.448C127.714 12.312 126.58 13.284 125.32 14.364C125.212 14.472 125.086 14.526 124.942 14.526C124.762 14.526 124.6 14.418 124.456 14.202C124.348 13.986 124.294 13.752 124.294 13.5C124.294 13.068 124.438 12.726 124.726 12.474C127.426 10.17 129.586 8.262 131.206 6.75C132.862 5.238 134.23 3.888 135.31 2.7C136.174 1.764 137.074 1.08 138.01 0.648003C138.946 0.216002 140.08 0 141.412 0C142.312 0 143.356 0.108 144.544 0.323999C145.012 0.432 145.246 0.576001 145.246 0.756001C145.246 0.936 145.03 1.188 144.598 1.512C144.022 1.908 143.302 2.7 142.438 3.888C141.61 5.04 140.71 6.462 139.738 8.154C138.766 9.81 137.776 11.628 136.768 13.608C135.796 15.552 134.878 17.514 134.014 19.494C133.15 21.474 132.394 23.346 131.746 25.11C131.134 26.838 130.684 28.332 130.396 29.592Z" fill="#7252FA"/>
<path d="M141.137 24.7756C141.243 27.9514 143.833 29.885 147.899 29.885C152.094 29.885 154.755 27.8108 154.755 24.5295C154.755 21.9514 153.278 20.4983 149.891 19.7717L147.841 19.3381C145.895 18.8928 145.075 18.3068 145.075 17.2639C145.075 16.01 146.247 15.1779 147.993 15.1779C149.762 15.1779 151.016 16.0451 151.134 17.4748H154.45C154.391 14.4162 151.919 12.3889 147.981 12.3889C144.208 12.3889 141.512 14.4514 141.512 17.5686C141.512 20.0412 143.048 21.6233 146.165 22.2912L148.368 22.7717C150.407 23.2287 151.216 23.8381 151.216 24.9397C151.216 26.1818 149.927 27.0842 148.04 27.0842C146.165 27.0842 144.712 26.1701 144.548 24.7756H141.137Z" fill="#7252FA"/>
</svg>
