<svg width="71" height="25" viewBox="0 0 71 25" fill="none" xmlns="http://www.w3.org/2000/svg">
<path d="M14.8592 21.8911C13.265 21.8911 11.7847 21.6159 10.4183 21.0655C9.05193 20.5151 7.85632 19.7465 6.83151 18.7597C5.82568 17.7539 5.03809 16.5867 4.46875 15.2583C3.89942 13.9298 3.61475 12.4875 3.61475 10.9313C3.61475 9.3751 3.88993 7.93278 4.44029 6.60432C5.00962 5.27587 5.79721 4.11821 6.80304 3.13136C7.82785 2.14451 9.02346 1.3759 10.3899 0.82554C11.7563 0.27518 13.2461 0 14.8592 0C16.4723 0 17.9621 0.27518 19.3285 0.82554C20.6949 1.3759 21.881 2.14451 22.8868 3.13136C23.9117 4.11821 24.6992 5.27587 25.2496 6.60432C25.8189 7.93278 26.1036 9.3751 26.1036 10.9313C26.1036 12.4875 25.8189 13.9298 25.2496 15.2583C24.6803 16.5867 23.8832 17.7539 22.8584 18.7597C21.8525 19.7465 20.6664 20.5151 19.3 21.0655C17.9336 21.6159 16.4533 21.8911 14.8592 21.8911ZM14.8592 17.9057C15.8271 17.9057 16.719 17.7349 17.5351 17.3933C18.3701 17.0517 19.1007 16.5772 19.727 15.9699C20.3533 15.3437 20.8372 14.6035 21.1788 13.7495C21.5204 12.8955 21.6912 11.9561 21.6912 10.9313C21.6912 9.90648 21.5204 8.97656 21.1788 8.14153C20.8372 7.28753 20.3533 6.54739 19.727 5.92112C19.1007 5.29484 18.3701 4.8204 17.5351 4.49777C16.719 4.15617 15.8271 3.98537 14.8592 3.98537C13.8913 3.98537 12.9898 4.15617 12.1548 4.49777C11.3388 4.8204 10.6176 5.29484 9.99133 5.92112C9.36506 6.54739 8.88112 7.28753 8.53952 8.14153C8.19792 8.97656 8.02712 9.90648 8.02712 10.9313C8.02712 11.9561 8.19792 12.8955 8.53952 13.7495C8.88112 14.6035 9.36506 15.3437 9.99133 15.9699C10.6176 16.5772 11.3388 17.0517 12.1548 17.3933C12.9898 17.7349 13.8913 17.9057 14.8592 17.9057ZM19.3569 24.1115L13.0373 13.0663H17.592L23.9971 24.1115H19.3569Z" fill="#FF004F"/>
<path d="M39.2936 21.5494H34.2607V7.03684H29.712V2.92132H43.8296V7.03684H39.2936V21.5494Z" fill="#FF004F"/>
<path d="M51.207 21.5494H46.225V7.11329H51.207V21.5494ZM46.0976 3.52018C46.0976 2.77267 46.3057 2.21629 46.7219 1.85104C47.1382 1.48578 47.8092 1.30315 48.7351 1.30315C49.661 1.30315 50.3363 1.49003 50.761 1.86378C51.1857 2.23753 51.3981 2.78966 51.3981 3.52018C51.3981 4.98121 50.5104 5.71172 48.7351 5.71172C46.9768 5.71172 46.0976 4.98121 46.0976 3.52018Z" fill="#FF004F"/>
<path d="M59.5144 13.4331C60.1175 12.4732 60.6314 11.7257 61.0562 11.1906L64.2925 7.11329H69.8478L64.8404 13.2547L70.1664 21.5494H64.4709L61.311 16.3764L59.6928 17.6123V21.5494H54.6854V1.72362H59.6928V9.52144C59.6928 10.8551 59.5994 12.1589 59.4125 13.4331H59.5144Z" fill="#FF004F"/>
<path d="M11.3006 21.8911C9.70644 21.8911 8.22616 21.6159 6.85974 21.0655C5.49333 20.5151 4.29772 19.7465 3.27291 18.7597C2.26708 17.7539 1.4795 16.5867 0.91016 15.2583C0.340821 13.9298 0.0561523 12.4875 0.0561523 10.9313C0.0561523 9.3751 0.331332 7.93278 0.881693 6.60432C1.45103 5.27587 2.23862 4.11821 3.24445 3.13136C4.26925 2.14451 5.46487 1.3759 6.83128 0.82554C8.19769 0.27518 9.68746 0 11.3006 0C12.9137 0 14.4035 0.27518 15.7699 0.82554C17.1363 1.3759 18.3224 2.14451 19.3283 3.13136C20.3531 4.11821 21.1406 5.27587 21.691 6.60432C22.2603 7.93278 22.545 9.3751 22.545 10.9313C22.545 12.4875 22.2603 13.9298 21.691 15.2583C21.1217 16.5867 20.3246 17.7539 19.2998 18.7597C18.294 19.7465 17.1078 20.5151 15.7414 21.0655C14.375 21.6159 12.8947 21.8911 11.3006 21.8911ZM11.3006 17.9057C12.2685 17.9057 13.1604 17.7349 13.9765 17.3933C14.8115 17.0517 15.5422 16.5772 16.1684 15.9699C16.7947 15.3437 17.2786 14.6035 17.6202 13.7495C17.9618 12.8955 18.1326 11.9561 18.1326 10.9313C18.1326 9.90648 17.9618 8.97656 17.6202 8.14153C17.2786 7.28753 16.7947 6.54739 16.1684 5.92112C15.5422 5.29484 14.8115 4.8204 13.9765 4.49777C13.1604 4.15617 12.2685 3.98537 11.3006 3.98537C10.3327 3.98537 9.43125 4.15617 8.59623 4.49777C7.78017 4.8204 7.05901 5.29484 6.43274 5.92112C5.80647 6.54739 5.32253 7.28753 4.98093 8.14153C4.63932 8.97656 4.46852 9.90648 4.46852 10.9313C4.46852 11.9561 4.63932 12.8955 4.98093 13.7495C5.32253 14.6035 5.80647 15.3437 6.43274 15.9699C7.05901 16.5772 7.78017 17.0517 8.59623 17.3933C9.43125 17.7349 10.3327 17.9057 11.3006 17.9057ZM15.7984 24.1115L9.4787 13.0663H14.0334L20.4385 24.1115H15.7984Z" fill="black"/>
<path d="M35.735 21.5494H30.7021V7.03684H26.1534V2.92132H40.271V7.03684H35.735V21.5494Z" fill="black"/>
<path d="M47.6484 21.5494H42.6664V7.11329H47.6484V21.5494ZM42.539 3.52018C42.539 2.77267 42.7471 2.21629 43.1633 1.85104C43.5796 1.48578 44.2506 1.30315 45.1765 1.30315C46.1024 1.30315 46.7777 1.49003 47.2024 1.86378C47.6271 2.23753 47.8395 2.78966 47.8395 3.52018C47.8395 4.98121 46.9518 5.71172 45.1765 5.71172C43.4182 5.71172 42.539 4.98121 42.539 3.52018Z" fill="black"/>
<path d="M55.9558 13.4331C56.5589 12.4732 57.0728 11.7257 57.4976 11.1906L60.7339 7.11329H66.2892L61.2818 13.2547L66.6078 21.5494H60.9123L57.7524 16.3764L56.1342 17.6123V21.5494H51.1268V1.72362H56.1342V9.52144C56.1342 10.8551 56.0408 12.1589 55.8539 13.4331H55.9558Z" fill="black"/>
</svg>
