<svg width="28" height="28" viewBox="0 0 28 28" fill="none" xmlns="http://www.w3.org/2000/svg">
<g clip-path="url(#clip0_3210_524)">
<path d="M28 0H0V28H28V0Z" fill="#50ABF1"/>
<path d="M3.70917 20.7534C5.57264 21.9353 7.78312 22.6192 10.1527 22.6192C16.8096 22.6192 22.2059 17.2223 22.2059 10.566C22.2059 10.3998 22.2024 10.2348 22.196 10.0703C22.4368 9.88084 23.926 8.68725 24.291 7.91993C24.291 7.91993 23.0817 8.42251 21.8981 8.5409C21.8958 8.5409 21.8929 8.54145 21.8906 8.54145C21.8906 8.54145 21.8929 8.54029 21.8969 8.5374C22.006 8.46453 23.5307 7.42663 23.7371 6.18997C23.7371 6.18997 22.8818 6.64653 21.6841 7.04595C21.4858 7.11181 21.2783 7.17657 21.0643 7.2366C20.2923 6.41269 19.195 5.89844 17.977 5.89844C15.6406 5.89844 13.7474 7.79109 13.7474 10.1257C13.7474 10.4551 13.7853 10.7758 13.857 11.0836C13.5305 11.0703 8.55861 10.7915 5.17623 6.69543C5.17623 6.69543 3.15474 9.45512 6.38088 12.2929C6.38088 12.2929 5.40018 12.2538 4.55409 11.7483C4.55409 11.7483 4.24333 15.0916 7.89685 15.9464C7.89685 15.9464 7.17794 16.2187 6.03104 16.0246C6.03104 16.0246 6.67241 18.726 9.9184 18.9784C9.9184 18.9784 7.35163 21.2971 3.70801 20.7531L3.70917 20.7534Z" fill="white"/>
</g>
<defs>
<clipPath id="clip0_3210_524">
<rect width="28" height="28" fill="white"/>
</clipPath>
</defs>
</svg>
