<svg width="40" height="37" viewBox="0 0 40 37" fill="none" xmlns="http://www.w3.org/2000/svg">
<path fill-rule="evenodd" clip-rule="evenodd" d="M21.5465 11.3813C21.758 11.4169 23.4191 11.0424 23.4904 11.1673C23.5949 11.3227 24.3414 16.6654 24.1452 16.7036C23.9541 16.7392 22.5732 17.0552 22.5732 17.0552C22.4637 16.3291 21.5618 11.8373 21.5465 11.3813ZM26.3541 10.8666C26.3541 10.8666 26.7287 14.2959 26.9427 16.4743C26.8025 16.4896 25.2968 16.5991 24.9223 16.6144L24.1962 10.8666C24.907 10.7265 25.6484 10.7265 26.3541 10.8666ZM22.7643 18.8437C22.7643 18.8437 26.0382 18.0106 27.2204 18.4182C27.8242 20.5915 28.9223 32.7978 29.0268 33.2896C28.2854 33.3787 25.842 33.5902 25.6484 33.6488C25.4879 32.724 22.7643 19.4246 22.7643 18.8437ZM34.8841 11.5214C35.0752 11.5724 36.8102 11.3431 36.8306 11.4679C36.8662 11.8934 37.042 17.0195 36.8459 17.0399C36.6522 17.0552 35.2739 17.18 35.2739 17.18C35.2382 16.4743 34.8484 11.9978 34.8841 11.5214ZM39.7146 11.5214C39.7146 11.5214 39.679 14.9482 39.7146 17.1265C39.5541 17.1443 38.0688 17.0552 37.6968 17.0552L37.5567 11.3813C38.2777 11.3431 39.0038 11.3966 39.7146 11.5214ZM35.2739 18.9991C35.2739 18.9991 38.614 18.5584 39.7452 19.0883C39.9949 21.6361 39.9592 33.5036 39.9949 34.0004C39.2357 34.0004 36.8102 34.0361 36.6166 34.0692C36.5809 33.1494 35.2204 19.5851 35.2739 18.9991ZM31.9643 4.19656C31.949 4.74688 33.1822 21.6717 34.1936 32.2679C32.4764 32.1584 30.958 32.1227 30.958 32.1227C30.9045 31.045 29.4369 14.245 27.5057 4.41058C27.5057 4.41058 31.5389 3.72013 31.9643 4.19656ZM12.5758 35.3966C7.44459 36.3876 4.45605 36.0692 4.45605 36.0692C2.58344 13.394 0 2.46408 0 2.46408C2.15796 1.67172 6.15287 -0.2442 6.52739 0.0258639C6.47389 0.836055 6.27771 5.75325 6.5121 10.8157C6.77707 16.7036 7.46497 22.7876 7.46497 22.7876C13.0166 21.7813 22.8892 24.9074 23.2637 27.6666C23.7707 31.315 17.707 34.4055 12.5758 35.3966ZM16.4306 28.622C15.865 28.2705 10.5427 26.2883 10.3287 26.3978L11.1949 32.6373C11.1949 32.6373 16.3414 29.0119 16.4306 28.622Z" fill="#00A1D6"/>
</svg>
