<svg width="40" height="40" viewBox="0 0 40 40" fill="none" xmlns="http://www.w3.org/2000/svg">
<g clip-path="url(#clip0_3207_206)">
<path d="M23.4467 18.855C20.5233 18.855 18.2733 21.2333 18.2733 24.0383C18.2733 26.96 20.5233 29.18 23.6983 29.18L23.6717 29.1833C26.3217 29.1833 28.5467 27 28.5467 24.1167C28.5467 21.1167 26.32 18.855 23.4433 18.855H23.4467ZM0 0V40H40V0H0ZM34.4883 34.6783H28.5283V32.3283C26.695 34.1283 24.8233 34.7783 22.3367 34.7783C19.8 34.7783 17.6167 33.9533 15.7867 32.3033C13.3733 30.1783 12.1233 27.3533 12.1233 24.0767C12.1233 21.0767 13.29 18.3867 15.4733 16.2867C17.4233 14.3767 19.7983 13.4033 22.4483 13.4033C24.9817 13.4033 26.9317 14.2583 28.3317 16.0533V6.92833L34.4867 5.65333V5.65L34.49 5.655L34.4867 5.65333V34.6783H34.4883Z" fill="black"/>
</g>
<defs>
<clipPath id="clip0_3207_206">
<rect width="40" height="40" rx="20" fill="white"/>
</clipPath>
</defs>
</svg>
