<svg width="40" height="40" viewBox="0 0 40 40" fill="none" xmlns="http://www.w3.org/2000/svg">
<path d="M40 20C40 8.95407 31.0459 0 20 0C8.95407 0 0 8.95407 0 20C0 29.9822 7.31259 38.2578 16.8741 39.757V25.7807H11.7956V20H16.8741V15.5941C16.8741 10.5807 19.8607 7.81333 24.4296 7.81333C26.6193 7.81333 28.9067 8.20444 28.9067 8.20444V13.1259H26.3852C23.8993 13.1259 23.1259 14.6667 23.1259 16.2489V20H28.6726L27.7867 25.7807H23.1259V39.757C32.6874 38.2578 40 29.9822 40 20Z" fill="#4676ED"/>
<path d="M27.7838 25.7799L28.6697 19.9992H23.126V16.2481C23.126 14.6658 23.8994 13.1251 26.3853 13.1251H28.9068V8.20361C28.9068 8.20361 26.6194 7.8125 24.4297 7.8125C19.8608 7.8125 16.8742 10.5799 16.8742 15.5932V19.9992H11.7957V25.7799H16.8742V39.7562C17.8934 39.9162 18.9364 39.9992 20.0001 39.9992C21.0638 39.9992 22.1068 39.9162 23.126 39.7562V25.7799H27.7838Z" fill="white"/>
</svg>
