<svg width="40" height="40" viewBox="0 0 40 40" fill="none" xmlns="http://www.w3.org/2000/svg">
<path d="M20 40C31.0457 40 40 31.0457 40 20C40 8.9543 31.0457 0 20 0C8.9543 0 0 8.9543 0 20C0 31.0457 8.9543 40 20 40Z" fill="#4467AD"/>
<path d="M21.5468 17.2765C21.8757 16.9062 22.1453 16.5328 22.4831 16.2158C23.5201 15.238 24.7468 14.7462 26.1809 14.758C26.969 14.7639 27.7453 14.8202 28.5038 15.0395C30.2401 15.5402 31.2475 16.7373 31.7305 18.4321C32.092 19.7032 32.1572 21.0099 32.1601 22.3195C32.1661 25.081 32.1512 27.8454 32.1572 30.6069C32.1572 30.8647 32.0861 30.9328 31.8312 30.9328C30.409 30.921 28.9838 30.921 27.5616 30.9328C27.3098 30.9358 27.2564 30.8588 27.2564 30.6217C27.2653 27.9936 27.2653 25.3654 27.2564 22.7343C27.2535 22.0765 27.212 21.4158 27.0283 20.7758C26.6875 19.5965 25.8431 18.9951 24.6075 19.0602C22.9187 19.1491 22.0416 19.9847 21.8253 21.7002C21.775 22.1091 21.7483 22.521 21.7513 22.9328C21.7542 25.4899 21.7483 28.0469 21.7572 30.6039C21.7572 30.8588 21.695 30.9328 21.4342 30.9328C20.0001 30.921 18.5661 30.921 17.132 30.9328C16.9009 30.9358 16.8357 30.8736 16.8357 30.6395C16.8416 25.5788 16.8416 20.5151 16.8357 15.4543C16.8357 15.2025 16.9187 15.1462 17.1557 15.1462C18.5157 15.1551 19.8787 15.158 21.2387 15.1462C21.4905 15.1432 21.5527 15.2262 21.5498 15.4632C21.5379 16.0677 21.5468 16.6721 21.5468 17.2765Z" fill="#FEFEFE"/>
<path d="M13.7481 23.0558C13.7481 25.5595 13.7451 28.0632 13.754 30.5669C13.754 30.8455 13.6859 30.9284 13.3984 30.9255C11.9762 30.9107 10.554 30.9136 9.12882 30.9225C8.90067 30.9255 8.83252 30.8662 8.83252 30.6321C8.83845 25.5625 8.83845 20.4929 8.83252 15.4203C8.83252 15.2099 8.88289 15.1358 9.10511 15.1358C10.5481 15.1447 11.991 15.1477 13.434 15.1329C13.7125 15.1299 13.7481 15.2366 13.7481 15.4766C13.7451 18.0069 13.7481 20.5314 13.7481 23.0558Z" fill="#FEFEFE"/>
<path d="M14.1422 10.1187C14.1452 11.692 12.8682 12.972 11.2978 12.972C9.74817 12.972 8.46225 11.692 8.45632 10.1424C8.45039 8.57795 9.73632 7.28906 11.3037 7.28906C12.8593 7.29499 14.1393 8.57203 14.1422 10.1187Z" fill="#FEFEFE"/>
</svg>
