<svg width="40" height="40" viewBox="0 0 40 40" fill="none" xmlns="http://www.w3.org/2000/svg">
<path d="M20.0178 0C8.96296 0 0 8.94838 0 19.9852C0 28.4544 5.27111 35.6929 12.717 38.6038C12.5363 37.0241 12.3881 34.5896 12.7822 32.865C13.1437 31.3031 15.123 22.9315 15.123 22.9315C15.123 22.9315 14.5304 21.7305 14.5304 19.9704C14.5304 17.1898 16.1452 15.1191 18.1541 15.1191C19.8667 15.1191 20.6904 16.4029 20.6904 17.9323C20.6904 19.6421 19.603 22.2097 19.0252 24.594C18.5481 26.5848 20.0296 28.2118 21.9911 28.2118C25.5496 28.2118 28.2844 24.4609 28.2844 19.0682C28.2844 14.2819 24.8415 10.9422 19.9141 10.9422C14.2133 10.9422 10.8711 15.2019 10.8711 19.6095C10.8711 21.3193 11.5289 23.1623 12.3526 24.1651C12.5185 24.3633 12.5333 24.5437 12.483 24.7419C12.3348 25.3661 11.9881 26.7327 11.923 27.0108C11.84 27.3717 11.6267 27.4545 11.2474 27.2741C8.74667 26.1026 7.18222 22.4671 7.18222 19.5237C7.18222 13.2229 11.763 7.43381 20.4119 7.43381C27.3481 7.43381 32.7526 12.368 32.7526 18.9794C32.7526 25.8719 28.403 31.4125 22.3733 31.4125C20.3467 31.4125 18.4356 30.3594 17.7926 29.1111C17.7926 29.1111 16.7881 32.9271 16.5393 33.8648C16.0948 35.6072 14.8741 37.7784 14.0504 39.1126C15.9289 39.6894 17.9052 40 19.9822 40C31.037 40 40 31.0516 40 20.0148C40.0326 8.94838 31.0696 0 20.0178 0Z" fill="#C40027"/>
</svg>
