<svg width="40" height="40" viewBox="0 0 40 40" fill="none" xmlns="http://www.w3.org/2000/svg">
<path d="M20 40C31.0457 40 40 31.0457 40 20C40 8.9543 31.0457 0 20 0C8.9543 0 0 8.9543 0 20C0 31.0457 8.9543 40 20 40Z" fill="#DC4711"/>
<path d="M33.3304 19.997C33.3304 18.3852 32.0237 17.0815 30.4148 17.0815C29.6296 17.0815 28.9155 17.3955 28.3911 17.8992C26.397 16.4592 23.6504 15.5318 20.5896 15.4252L21.917 9.17332L26.2578 10.0948C26.3111 11.197 27.2148 12.08 28.3318 12.08C29.4815 12.08 30.4148 11.1467 30.4148 9.99703C30.4148 8.8474 29.4815 7.91406 28.3318 7.91406C27.5141 7.91406 26.8118 8.3911 26.4711 9.07554L21.6237 8.04443C21.4874 8.0148 21.3481 8.04147 21.2326 8.11851C21.117 8.19258 21.0341 8.3111 21.0074 8.4474L19.5259 15.4222C16.4207 15.5081 13.6296 16.4385 11.6089 17.8933C11.0844 17.3896 10.3763 17.0815 9.59109 17.0815C7.97924 17.0815 6.67554 18.3881 6.67554 19.997C6.67554 21.1822 7.38369 22.2015 8.39998 22.6578C8.35554 22.9481 8.33183 23.2415 8.33183 23.5407C8.33183 28.0267 13.5555 31.6652 20 31.6652C26.4444 31.6652 31.6681 28.0267 31.6681 23.5407C31.6681 23.2444 31.6444 22.9511 31.6 22.6637C32.6163 22.2074 33.3304 21.1881 33.3304 19.997ZM13.3333 22.08C13.3333 20.9304 14.2696 19.997 15.4163 19.997C16.5659 19.997 17.4992 20.9304 17.4992 22.08C17.4992 23.2296 16.5659 24.163 15.4163 24.163C14.2696 24.163 13.3333 23.2296 13.3333 22.08ZM24.9511 27.5852C23.5289 29.0044 20.8059 29.1141 20.0029 29.1141C19.2029 29.1141 16.477 29.0044 15.0578 27.5822C14.8474 27.3718 14.8474 27.0281 15.0578 26.8178C15.2681 26.6074 15.6118 26.6074 15.8222 26.8178C16.717 27.7126 18.637 28.0326 20.0059 28.0326C21.3748 28.0326 23.2918 27.7155 24.1896 26.8178C24.4 26.6074 24.7437 26.6074 24.9541 26.8178C25.1615 27.0341 25.1615 27.3748 24.9511 27.5852ZM24.5837 24.163C23.4341 24.163 22.5007 23.2296 22.5007 22.08C22.5007 20.9304 23.4341 19.997 24.5837 19.997C25.7333 19.997 26.6666 20.9333 26.6666 22.08C26.6666 23.2296 25.7333 24.163 24.5837 24.163Z" fill="white"/>
</svg>
