<svg width="40" height="40" viewBox="0 0 40 40" fill="none" xmlns="http://www.w3.org/2000/svg">
<path d="M20 40C31.0457 40 40 31.0457 40 20C40 8.9543 31.0457 0 20 0C8.9543 0 0 8.9543 0 20C0 31.0457 8.9543 40 20 40Z" fill="#5A99EC"/>
<path d="M15.9586 31.5214C25.7275 31.5214 31.0697 23.4296 31.0697 16.4103C31.0697 16.1792 31.0637 15.951 31.0549 15.7229C32.0919 14.9733 32.9926 14.037 33.7037 12.9733C32.7526 13.397 31.7274 13.6814 30.6549 13.8088C31.7512 13.151 32.5926 12.111 32.9897 10.8725C31.9645 11.4799 30.8267 11.9244 29.6178 12.1614C28.6489 11.1303 27.2682 10.4844 25.7423 10.4844C22.8089 10.4844 20.4297 12.8636 20.4297 15.794C20.4297 16.2118 20.4771 16.6147 20.5689 17.0059C16.1541 16.7836 12.24 14.671 9.62375 11.4562C9.16745 12.2414 8.90375 13.154 8.90375 14.1259C8.90375 15.9688 9.84004 17.5955 11.2682 18.5466C10.3971 18.5199 9.5793 18.2799 8.86227 17.8829C8.86227 17.9036 8.86227 17.9273 8.86227 17.951C8.86227 20.5229 10.6934 22.671 13.123 23.157C12.6756 23.2784 12.2075 23.3436 11.7245 23.3436C11.3837 23.3436 11.0489 23.311 10.726 23.2488C11.4015 25.3584 13.363 26.8933 15.686 26.9377C13.8667 28.3629 11.5793 29.2103 9.09041 29.2103C8.66078 29.2103 8.24004 29.1866 7.82227 29.1362C10.1689 30.6414 12.96 31.5214 15.9586 31.5214Z" fill="white"/>
</svg>
