<svg width="40" height="40" viewBox="0 0 40 40" fill="none" xmlns="http://www.w3.org/2000/svg">
<path d="M20 40C31.0457 40 40 31.0457 40 20C40 8.9543 31.0457 0 20 0C8.9543 0 0 8.9543 0 20C0 31.0457 8.9543 40 20 40Z" fill="#010201"/>
<path d="M14.6608 28.0226C14.6845 28.0433 14.7082 28.067 14.7319 28.0877C14.9541 28.2448 15.1141 28.47 15.3245 28.6389C15.9823 29.1663 16.723 29.4537 17.5704 29.507C19.5793 29.6315 21.3304 28.1203 21.5586 26.1322C21.5704 26.0344 21.5645 25.9366 21.5645 25.8389C21.5645 19.8566 21.5645 13.8744 21.5645 7.88923C21.5645 7.48626 21.5645 7.48626 21.9675 7.48626C22.8771 7.48626 23.7867 7.48626 24.6963 7.48626C24.7823 7.48626 24.8712 7.47145 24.9482 7.52478C24.9541 7.53071 24.9571 7.53367 24.963 7.53664C25.0075 7.58108 25.0193 7.64034 25.0312 7.69663C25.3808 9.30849 26.2282 10.5944 27.5586 11.5663C27.6415 11.6255 27.7126 11.7026 27.7897 11.7677C27.8489 11.8181 27.9052 11.8655 27.9645 11.9159C28.1778 12.0374 28.3319 12.2329 28.5186 12.39C29.2534 13.0033 30.086 13.427 31.0134 13.664C31.0963 13.6848 31.1882 13.6848 31.2475 13.7618C31.2504 13.7677 31.2563 13.7707 31.2623 13.7737C31.3156 13.83 31.3067 13.904 31.3067 13.9722C31.3067 15.027 31.3097 16.0818 31.3067 17.1366C31.3067 17.3766 31.2741 17.3914 31.0312 17.3914C30.2578 17.3914 29.4993 17.2877 28.7497 17.1159C27.4578 16.8196 26.2667 16.2952 25.1615 15.5692C25.1052 15.5307 25.043 15.4507 24.9808 15.4774C24.9038 15.5129 24.9423 15.6137 24.9423 15.6848C24.9393 18.6537 24.9541 21.6226 24.9363 24.5944C24.9245 26.6714 24.2638 28.5292 22.9038 30.1085C21.4608 31.7885 19.6267 32.7633 17.4252 33.0329C15.7275 33.2403 14.1186 32.9322 12.5897 32.1796C12.3438 32.0581 12.1067 31.9159 11.8845 31.75C11.8134 31.6877 11.7452 31.6255 11.6741 31.5633C11.1467 31.1277 10.7823 30.5648 10.4386 29.99C9.91116 29.1011 9.57042 28.1411 9.40449 27.1218C9.30968 26.5381 9.25931 25.9515 9.2919 25.3618C9.3956 23.4596 10.0356 21.7648 11.2623 20.2981C12.2904 19.0685 13.5763 18.2092 15.0904 17.6907C15.7215 17.4744 16.3734 17.3411 17.043 17.2937C17.1675 17.2848 17.2889 17.2552 17.4134 17.264C17.4726 17.267 17.5319 17.2611 17.5852 17.3026C17.5912 17.3085 17.5971 17.3115 17.603 17.3144C17.6386 17.3737 17.6297 17.4418 17.6297 17.504C17.6297 18.5737 17.6297 19.6463 17.6297 20.7159C17.6297 20.7544 17.6297 20.7929 17.6267 20.8285C17.6208 20.9352 17.5675 20.9707 17.4667 20.944C17.1734 20.8611 16.8741 20.8226 16.5719 20.8077C16.1038 20.784 15.6415 20.8492 15.2 21.0122C13.7275 21.5544 12.8356 22.6092 12.6489 24.1618C12.4652 25.6907 13.0697 26.9144 14.3408 27.7974C14.4534 27.8715 14.563 27.9396 14.6608 28.0226Z" fill="white"/>
<path d="M11.8904 31.7575C11.9467 31.7427 11.9793 31.7872 12.0178 31.8109C12.9748 32.3946 14.0059 32.7768 15.1141 32.9546C15.6711 33.0435 16.2311 33.082 16.7941 33.0524C18.6756 32.9546 20.3615 32.3294 21.8193 31.1235C23.2208 29.965 24.1541 28.5013 24.6193 26.7442C24.7674 26.1901 24.8474 25.6242 24.877 25.0494C24.8948 24.7205 24.8919 24.3887 24.8919 24.0598C24.8919 21.2301 24.8919 18.4005 24.8919 15.5709C24.8919 15.5057 24.8919 15.4435 24.8919 15.3783C24.9659 15.3575 24.9985 15.4138 25.04 15.4405C26.0474 16.1309 27.1378 16.6405 28.317 16.9664C28.963 17.1442 29.6208 17.2627 30.2904 17.322C30.5719 17.3457 30.8533 17.3427 31.1319 17.3635C31.2533 17.3724 31.2563 17.3664 31.2593 17.239C31.2622 17.1027 31.2593 16.9694 31.2593 16.8331C31.2593 15.8761 31.2593 14.919 31.2593 13.959C31.2593 13.8998 31.2622 13.8405 31.2652 13.7812C31.517 13.8109 31.7659 13.8642 32.0208 13.882C32.1778 13.8938 32.3348 13.9087 32.4919 13.9027C32.5689 13.8998 32.6015 13.9264 32.5926 14.0064C32.5896 14.039 32.5926 14.0716 32.5926 14.1042C32.5926 15.4879 32.5926 16.8746 32.5926 18.2583C32.5926 18.285 32.5926 18.3116 32.5926 18.3383C32.5896 18.4598 32.5896 18.4627 32.4622 18.4598C32.0296 18.4598 31.597 18.4301 31.1674 18.3738C30.2904 18.2583 29.437 18.042 28.6133 17.722C27.8252 17.4138 27.0815 17.0227 26.3822 16.5427C26.3378 16.5131 26.2933 16.4864 26.2282 16.442C26.2282 16.522 26.2282 16.5783 26.2282 16.6375C26.2282 19.6627 26.2311 22.685 26.2282 25.7101C26.2252 27.322 25.8104 28.8212 24.9482 30.1872C23.9082 31.8375 22.4682 32.9961 20.637 33.6627C19.5259 34.0657 18.3733 34.2227 17.1911 34.1338C15.197 33.9857 13.4726 33.2242 12.003 31.8731C11.9615 31.8405 11.9289 31.799 11.8904 31.7575Z" fill="#CB1C54"/>
<path d="M24.9511 7.52745C24.8919 7.53042 24.8326 7.53634 24.7733 7.53634C23.7985 7.53634 22.8237 7.53634 21.8519 7.53634C21.6267 7.53634 21.6267 7.53634 21.6267 7.7556C21.6267 13.7082 21.6267 19.6578 21.6296 25.6104C21.6296 26.0252 21.6 26.4312 21.4696 26.8252C21.0133 28.2178 20.0771 29.1363 18.6489 29.4623C17.1171 29.8119 15.8163 29.3438 14.7793 28.1556C14.7615 28.1349 14.7496 28.1112 14.7378 28.0875C15.0341 28.206 15.3304 28.3245 15.6445 28.3867C16.643 28.5852 17.5852 28.4312 18.4504 27.8978C19.4519 27.2815 20.0415 26.3778 20.2489 25.2252C20.2874 25.006 20.2933 24.7838 20.2933 24.5615C20.2933 18.6 20.2933 12.6356 20.2933 6.67412C20.2933 6.3956 20.2548 6.43116 20.5304 6.43116C21.9052 6.43116 23.28 6.43116 24.6548 6.43116C24.6874 6.43116 24.72 6.43116 24.7526 6.43116C24.8919 6.43412 24.8948 6.43412 24.8948 6.57634C24.8919 6.89634 24.8859 7.21338 24.9511 7.52745Z" fill="#6ABAC5"/>
<path d="M17.5911 17.3086C16.7526 17.3353 15.9289 17.4686 15.1318 17.7353C13.9792 18.1175 12.954 18.719 12.0592 19.5427C10.8859 20.6242 10.0859 21.9338 9.64738 23.4657C9.49034 24.0109 9.40145 24.5709 9.35997 25.1368C9.33627 25.4775 9.32738 25.8183 9.34812 26.156C9.39849 27.1012 9.59405 28.0138 9.95257 28.8909C10.3526 29.8716 10.9155 30.7486 11.6474 31.516C11.6622 31.5309 11.6711 31.5516 11.6829 31.5694C11.517 31.4983 11.3837 31.3768 11.2444 31.2672C9.88145 30.1857 8.91849 28.8227 8.39108 27.1605C8.20738 26.5827 8.09183 25.9901 8.03553 25.3857C7.99405 24.9472 7.99108 24.5086 8.01775 24.0731C8.08294 23.0657 8.32294 22.0997 8.73775 21.1783C9.17331 20.2153 9.7659 19.362 10.5185 18.6242C11.3955 17.7649 12.4118 17.119 13.5703 16.7042C14.2963 16.4434 15.0429 16.2834 15.8133 16.2272C16.3703 16.1857 16.9244 16.1975 17.4815 16.2657C17.5555 16.2746 17.6 16.2894 17.6 16.3783C17.5911 16.6923 17.5911 17.0005 17.5911 17.3086Z" fill="#6ABAC5"/>
<path d="M14.6606 28.0251C14.3229 27.871 14.0295 27.6518 13.7629 27.397C13.0962 26.754 12.6992 25.9718 12.5955 25.0503C12.3792 23.1184 13.5969 21.4532 15.2888 20.9377C16.0117 20.7184 16.7347 20.7095 17.4606 20.9051C17.5021 20.917 17.5406 20.9347 17.5851 20.9229C17.6088 20.8636 17.5969 20.8044 17.5969 20.7451C17.5969 19.6636 17.5969 18.5821 17.5969 17.5007C17.5969 17.4414 17.6029 17.3821 17.6058 17.3229C18.0236 17.2932 18.4384 17.3318 18.8503 17.3792C18.9155 17.3851 18.9332 17.4177 18.9303 17.474C18.9303 17.5066 18.9303 17.5392 18.9303 17.5718C18.9303 19.0058 18.9303 20.4399 18.9303 21.871C18.9303 21.9244 18.9451 21.9777 18.9095 22.037C18.7199 22.0014 18.5362 21.9451 18.3436 21.9184C17.2355 21.7644 16.2369 22.0221 15.3599 22.7125C14.5895 23.3199 14.1155 24.117 13.9555 25.0829C13.7866 26.1081 13.9999 27.0592 14.5895 27.9214C14.6192 27.951 14.6399 27.9895 14.6606 28.0251Z" fill="#CB1C54"/>
<path d="M27.7955 11.7757C27.3778 11.5298 27.0133 11.2187 26.6785 10.872C25.7778 9.9446 25.2089 8.84534 24.9659 7.57423C24.963 7.56237 24.9659 7.55348 24.9659 7.54163C25.3541 7.52089 25.7452 7.53867 26.1333 7.53274C26.2015 7.53274 26.2341 7.55941 26.2252 7.62756C26.2222 7.65423 26.2252 7.68089 26.2252 7.70756C26.2044 8.79793 26.5274 9.79348 27.0607 10.7298C27.2504 11.0646 27.4785 11.3727 27.7244 11.669C27.7511 11.7046 27.7896 11.7283 27.7955 11.7757Z" fill="#CB1C54"/>
<path d="M31.2502 13.7681C30.1421 13.531 29.1673 13.0303 28.3199 12.2777C28.1954 12.1681 28.068 12.0584 27.9673 11.9221C28.0088 11.9192 28.0384 11.9429 28.071 11.9606C28.7436 12.3458 29.4606 12.5977 30.2251 12.7221C30.5214 12.7725 30.8236 12.8021 31.1258 12.7992C31.2532 12.7992 31.2562 12.8021 31.2562 12.9236C31.2562 13.2081 31.2532 13.4866 31.2502 13.7681Z" fill="#6ABAC5"/>
</svg>
