<svg width="40" height="40" viewBox="0 0 40 40" fill="none" xmlns="http://www.w3.org/2000/svg">
<path d="M20 40C31.0457 40 40 31.0457 40 20C40 8.9543 31.0457 0 20 0C8.9543 0 0 8.9543 0 20C0 31.0457 8.9543 40 20 40Z" fill="#1AB7EA"/>
<path d="M32.9215 14.9229C32.8001 17.5481 30.9689 21.1392 27.4223 25.7021C23.7571 30.4666 20.6549 32.8488 18.1186 32.8488C16.5452 32.8488 15.2178 31.3999 14.1304 28.4962C13.4045 25.8355 12.6815 23.1777 11.9556 20.517C11.1497 17.6162 10.2845 16.1644 9.35709 16.1644C9.15561 16.1644 8.45043 16.5881 7.24154 17.4355L5.97339 15.8029C7.30376 14.6325 8.61635 13.4651 9.9082 12.2947C11.683 10.7629 13.0164 9.95399 13.9052 9.87399C16.003 9.67251 17.2949 11.1066 17.7778 14.1762C18.3023 17.4888 18.6638 19.5481 18.8682 20.354C19.4726 23.1036 20.1393 24.4755 20.8652 24.4755C21.4282 24.4755 22.2786 23.5836 23.4075 21.7999C24.5364 20.0192 25.1408 18.6621 25.2238 17.7288C25.3838 16.191 24.7793 15.4207 23.4075 15.4207C22.7615 15.4207 22.0949 15.5688 21.4104 15.8621C22.7349 11.5214 25.2682 9.41474 29.0045 9.53622C31.7749 9.61325 33.0815 11.4088 32.9215 14.9229Z" fill="white"/>
</svg>
