<?xml version="1.0" encoding="UTF-8"?>
<svg id="Layer_2" data-name="Layer 2" xmlns="http://www.w3.org/2000/svg" viewBox="0 0 476.73 460.98">
  <defs>
    <style>
      .cls-1 {
        fill: #ca2b2b;
      }

      .cls-2 {
        fill: #ed1c24;
        opacity: .5;
      }
    </style>
  </defs>
  <g>
    <rect class="cls-2" y="412.85" width="476.73" height="48.13"/>
    <polygon class="cls-2" points="476.73 0 476.3 .74 449 48.02 448.57 48.76 434.96 72.33 379.51 72.33 393.55 48.02 339.25 48.02 353.29 72.33 363.68 90.34 366.4 95.04 383.96 125.46 393.68 142.29 394.12 143.07 393.89 143.47 366.4 191.09 352.32 215.48 324.59 263.5 324.14 262.72 296.86 215.48 281.57 188.99 280.42 186.99 255.29 143.47 252.69 138.96 244.89 125.46 242.29 120.96 224.62 90.34 214.22 72.33 200.18 48.02 172.46 0 227.91 0 255.63 48.02 269.67 72.33 280.07 90.34 300.34 125.46 310.74 143.47 324.59 167.46 338.44 143.47 338.67 143.07 328.51 125.46 308.23 90.34 297.83 72.33 283.8 48.02 256.07 0 476.73 0"/>
    <polygon class="cls-2" points="320.58 270.45 292.85 318.47 266.09 364.83 238.37 412.85 237.92 412.07 210.64 364.83 118.36 205 173.81 205 238.37 316.81 265.13 270.45 227.34 205 216.94 186.99 107.96 186.99 80.24 138.96 69.84 120.96 27.73 48.02 0 0 164.43 0 192.16 48.02 213.74 85.39 216.59 90.34 234.27 120.96 178.82 120.96 136.71 48.02 83.18 48.02 125.29 120.96 135.69 138.96 244.67 138.96 247.27 143.47 272.39 186.99 281.57 202.88 292.85 222.43 320.13 269.67 320.58 270.45"/>
  </g>
  <g>
    <g>
      <rect class="cls-1" y="412.85" width="476.73" height="48.13"/>
      <rect class="cls-1" y="412.85" width="476.73" height="48.13"/>
    </g>
    <g>
      <polygon class="cls-1" points="476.73 0 476.3 .74 449 48.02 448.57 48.76 434.96 72.33 379.51 72.33 393.55 48.02 339.25 48.02 353.29 72.33 363.68 90.34 366.4 95.04 383.96 125.46 393.68 142.29 394.12 143.07 393.89 143.47 366.4 191.09 352.32 215.48 324.59 263.5 324.14 262.72 296.86 215.48 281.57 188.99 280.42 186.99 255.29 143.47 252.69 138.96 244.89 125.46 242.29 120.96 224.62 90.34 214.22 72.33 200.18 48.02 172.46 0 227.91 0 255.63 48.02 269.67 72.33 280.07 90.34 300.34 125.46 310.74 143.47 324.59 167.46 338.44 143.47 338.67 143.07 328.51 125.46 308.23 90.34 297.83 72.33 283.8 48.02 256.07 0 476.73 0"/>
      <polygon class="cls-1" points="476.73 0 476.3 .74 449 48.02 448.57 48.76 434.96 72.33 379.51 72.33 393.55 48.02 339.25 48.02 353.29 72.33 363.68 90.34 366.4 95.04 383.96 125.46 393.68 142.29 394.12 143.07 393.89 143.47 366.4 191.09 352.32 215.48 324.59 263.5 324.14 262.72 296.86 215.48 281.57 188.99 280.42 186.99 255.29 143.47 252.69 138.96 244.89 125.46 242.29 120.96 224.62 90.34 214.22 72.33 200.18 48.02 172.46 0 227.91 0 255.63 48.02 269.67 72.33 280.07 90.34 300.34 125.46 310.74 143.47 324.59 167.46 338.44 143.47 338.67 143.07 328.51 125.46 308.23 90.34 297.83 72.33 283.8 48.02 256.07 0 476.73 0"/>
    </g>
    <g>
      <polygon class="cls-1" points="320.58 270.45 292.85 318.47 266.09 364.83 238.37 412.85 237.92 412.07 210.64 364.83 118.36 205 173.81 205 238.37 316.81 265.13 270.45 227.34 205 216.94 186.99 107.96 186.99 80.24 138.96 69.84 120.96 27.73 48.02 0 0 164.43 0 192.16 48.02 213.74 85.39 216.59 90.34 234.27 120.96 178.82 120.96 136.71 48.02 83.18 48.02 125.29 120.96 135.69 138.96 244.67 138.96 247.27 143.47 272.39 186.99 281.57 202.88 292.85 222.43 320.13 269.67 320.58 270.45"/>
      <polygon class="cls-1" points="320.58 270.45 292.85 318.47 266.09 364.83 238.37 412.85 237.92 412.07 210.64 364.83 118.36 205 173.81 205 238.37 316.81 265.13 270.45 227.34 205 216.94 186.99 107.96 186.99 80.24 138.96 69.84 120.96 27.73 48.02 0 0 164.43 0 192.16 48.02 213.74 85.39 216.59 90.34 234.27 120.96 178.82 120.96 136.71 48.02 83.18 48.02 125.29 120.96 135.69 138.96 244.67 138.96 247.27 143.47 272.39 186.99 281.57 202.88 292.85 222.43 320.13 269.67 320.58 270.45"/>
    </g>
  </g>
</svg>