<?xml version="1.0" encoding="UTF-8"?>
<svg xmlns="http://www.w3.org/2000/svg" viewBox="0 0 723.29 97.09">
  <defs>
    <style>
      .cls-1 {
        fill: rgba(255, 255, 255, .8);
      }

      .cls-2, .cls-3 {
        fill: #fff;
      }

      .cls-3 {
        opacity: .5;
      }
    </style>
  </defs>
  <g id="Layer_1" data-name="Layer 1">
    <path class="cls-1" d="M162.86,77.64h-21.51V19.46h21.48c5.93,0,11.03,1.17,15.31,3.49,4.3,2.31,7.61,5.64,9.94,10,2.33,4.34,3.49,9.53,3.49,15.57s-1.16,11.27-3.49,15.62c-2.31,4.36-5.62,7.7-9.91,10.03-4.3,2.31-9.4,3.47-15.31,3.47Zm-7.44-11.99h6.9c3.26,0,6.01-.55,8.27-1.65,2.27-1.12,3.99-2.93,5.14-5.43,1.18-2.52,1.76-5.87,1.76-10.06s-.59-7.52-1.76-10c-1.17-2.5-2.91-4.3-5.2-5.4-2.27-1.12-5.08-1.68-8.41-1.68h-6.7v34.2Zm99.29-17.1c0,6.4-1.23,11.83-3.69,16.28-2.46,4.45-5.8,7.83-10,10.14-4.18,2.31-8.88,3.46-14.09,3.46s-9.93-1.16-14.12-3.49c-4.18-2.33-7.51-5.71-9.97-10.14-2.44-4.45-3.66-9.87-3.66-16.25s1.22-11.83,3.66-16.28c2.46-4.45,5.79-7.83,9.97-10.14,4.19-2.31,8.89-3.47,14.12-3.47s9.91,1.15,14.09,3.47c4.2,2.31,7.54,5.69,10,10.14,2.46,4.45,3.69,9.88,3.69,16.28Zm-14.38,0c0-3.79-.54-6.99-1.62-9.6-1.06-2.61-2.59-4.59-4.6-5.94-1.99-1.34-4.38-2.02-7.19-2.02s-5.18,.67-7.19,2.02c-2.01,1.35-3.55,3.32-4.63,5.94-1.06,2.61-1.59,5.81-1.59,9.6s.53,6.99,1.59,9.6c1.08,2.61,2.62,4.59,4.63,5.94,2.01,1.35,4.4,2.02,7.19,2.02s5.2-.67,7.19-2.02c2.01-1.35,3.54-3.32,4.6-5.94,1.08-2.61,1.62-5.81,1.62-9.6Zm33.64,29.09l-16.93-58.18h15.54l8.78,38.12h.48l10.03-38.12h12.67l10.03,38.21h.48l8.81-38.21h15.51l-16.9,58.18h-13.55l-10.48-35.28h-.45l-10.48,35.28h-13.52Zm120.73-58.18v58.18h-11.93l-23.15-33.58h-.37v33.58h-14.06V19.46h12.1l22.9,33.52h.48V19.46h14.04Zm8.84,58.18V19.46h14.06v46.76h24.2v11.42h-38.27Zm98.2-29.09c0,6.4-1.23,11.83-3.69,16.28-2.46,4.45-5.8,7.83-10,10.14-4.19,2.31-8.88,3.46-14.09,3.46s-9.93-1.16-14.12-3.49c-4.19-2.33-7.51-5.71-9.97-10.14-2.44-4.45-3.66-9.87-3.66-16.25s1.22-11.83,3.66-16.28c2.46-4.45,5.79-7.83,9.97-10.14,4.18-2.31,8.89-3.47,14.12-3.47s9.91,1.15,14.09,3.47c4.2,2.31,7.54,5.69,10,10.14,2.46,4.45,3.69,9.88,3.69,16.28Zm-14.38,0c0-3.79-.54-6.99-1.62-9.6-1.06-2.61-2.6-4.59-4.6-5.94-1.99-1.34-4.38-2.02-7.19-2.02s-5.18,.67-7.19,2.02c-2.01,1.35-3.55,3.32-4.63,5.94-1.06,2.61-1.59,5.81-1.59,9.6s.53,6.99,1.59,9.6c1.08,2.61,2.62,4.59,4.63,5.94,2.01,1.35,4.4,2.02,7.19,2.02s5.2-.67,7.19-2.02c2.01-1.35,3.54-3.32,4.6-5.94,1.08-2.61,1.62-5.81,1.62-9.6Zm31.73,29.09h-15.11l19.63-58.18h18.72l19.63,58.18h-15.11l-13.66-43.52h-.46l-13.64,43.52Zm-2.02-22.9h31.59v10.68h-31.59v-10.68Zm72.66,22.9h-21.51V19.46h21.48c5.93,0,11.03,1.17,15.31,3.49,4.3,2.31,7.61,5.64,9.94,10,2.33,4.34,3.49,9.53,3.49,15.57s-1.16,11.27-3.49,15.62c-2.31,4.36-5.61,7.7-9.91,10.03-4.3,2.31-9.4,3.47-15.31,3.47Zm-7.44-11.99h6.9c3.26,0,6.01-.55,8.27-1.65,2.27-1.12,3.99-2.93,5.14-5.43,1.17-2.52,1.76-5.87,1.76-10.06s-.59-7.52-1.76-10c-1.17-2.5-2.91-4.3-5.2-5.4-2.27-1.12-5.08-1.68-8.41-1.68h-6.7v34.2Zm44.38,11.99V19.46h40.57v11.42h-26.51v11.93h24.43v11.45h-24.43v11.96h26.51v11.42h-40.57Zm49.38,0V19.46h24.03c4.36,0,8.12,.79,11.28,2.36,3.18,1.55,5.64,3.79,7.36,6.71,1.72,2.9,2.59,6.34,2.59,10.31s-.88,7.46-2.64,10.28c-1.76,2.8-4.26,4.94-7.5,6.42-3.24,1.46-7.07,2.19-11.51,2.19h-15.2v-11.08h12.59c2.12,0,3.89-.27,5.31-.82,1.44-.57,2.53-1.42,3.27-2.56,.74-1.15,1.11-2.63,1.11-4.43s-.37-3.29-1.11-4.46c-.74-1.19-1.83-2.08-3.27-2.67-1.44-.61-3.21-.91-5.31-.91h-6.93v46.85h-14.06Zm32.76-26.59l14.49,26.59h-15.34l-14.2-26.59h15.06Z"/>
  </g>
  <g id="Layer_2" data-name="Layer 2">
    <g>
      <rect class="cls-3" y="86.96" width="100.41" height="10.14"/>
      <polygon class="cls-3" points="100.41 0 100.32 .16 94.57 10.11 94.48 10.27 91.61 15.23 79.93 15.23 82.89 10.11 71.45 10.11 74.41 15.23 76.6 19.03 77.17 20.02 80.87 26.43 82.92 29.97 83.01 30.13 82.96 30.22 77.17 40.25 74.21 45.39 68.37 55.5 68.27 55.34 62.53 45.39 59.31 39.81 59.06 39.38 53.77 30.22 53.22 29.27 51.58 26.43 51.03 25.48 47.31 19.03 45.12 15.23 42.16 10.11 36.32 0 48 0 53.84 10.11 56.8 15.23 58.99 19.03 63.26 26.43 65.45 30.22 68.37 35.27 71.28 30.22 71.33 30.13 69.19 26.43 64.92 19.03 62.73 15.23 59.78 10.11 53.94 0 100.41 0"/>
      <polygon class="cls-3" points="67.52 56.96 61.68 67.08 56.05 76.84 50.21 86.96 50.11 86.79 44.37 76.84 24.93 43.18 36.61 43.18 50.21 66.73 55.84 56.96 47.88 43.18 45.69 39.38 22.74 39.38 16.9 29.27 14.71 25.48 5.84 10.11 0 0 34.63 0 40.47 10.11 45.02 17.99 45.62 19.03 49.34 25.48 37.66 25.48 28.79 10.11 17.52 10.11 26.39 25.48 28.58 29.27 51.53 29.27 52.08 30.22 57.37 39.38 59.31 42.73 61.68 46.85 67.43 56.8 67.52 56.96"/>
    </g>
    <g>
      <g>
        <rect class="cls-2" y="86.96" width="100.41" height="10.14"/>
        <rect class="cls-2" y="86.96" width="100.41" height="10.14"/>
      </g>
      <g>
        <polygon class="cls-2" points="100.41 0 100.32 .16 94.57 10.11 94.48 10.27 91.61 15.23 79.93 15.23 82.89 10.11 71.45 10.11 74.41 15.23 76.6 19.03 77.17 20.02 80.87 26.43 82.92 29.97 83.01 30.13 82.96 30.22 77.17 40.25 74.21 45.39 68.37 55.5 68.27 55.34 62.53 45.39 59.31 39.81 59.06 39.38 53.77 30.22 53.22 29.27 51.58 26.43 51.03 25.48 47.31 19.03 45.12 15.23 42.16 10.11 36.32 0 48 0 53.84 10.11 56.8 15.23 58.99 19.03 63.26 26.43 65.45 30.22 68.37 35.27 71.28 30.22 71.33 30.13 69.19 26.43 64.92 19.03 62.73 15.23 59.78 10.11 53.94 0 100.41 0"/>
        <polygon class="cls-2" points="100.41 0 100.32 .16 94.57 10.11 94.48 10.27 91.61 15.23 79.93 15.23 82.89 10.11 71.45 10.11 74.41 15.23 76.6 19.03 77.17 20.02 80.87 26.43 82.92 29.97 83.01 30.13 82.96 30.22 77.17 40.25 74.21 45.39 68.37 55.5 68.27 55.34 62.53 45.39 59.31 39.81 59.06 39.38 53.77 30.22 53.22 29.27 51.58 26.43 51.03 25.48 47.31 19.03 45.12 15.23 42.16 10.11 36.32 0 48 0 53.84 10.11 56.8 15.23 58.99 19.03 63.26 26.43 65.45 30.22 68.37 35.27 71.28 30.22 71.33 30.13 69.19 26.43 64.92 19.03 62.73 15.23 59.78 10.11 53.94 0 100.41 0"/>
      </g>
      <g>
        <polygon class="cls-2" points="67.52 56.96 61.68 67.08 56.05 76.84 50.21 86.96 50.11 86.79 44.37 76.84 24.93 43.18 36.61 43.18 50.21 66.73 55.84 56.96 47.88 43.18 45.69 39.38 22.74 39.38 16.9 29.27 14.71 25.48 5.84 10.11 0 0 34.63 0 40.47 10.11 45.02 17.99 45.62 19.03 49.34 25.48 37.66 25.48 28.79 10.11 17.52 10.11 26.39 25.48 28.58 29.27 51.53 29.27 52.08 30.22 57.37 39.38 59.31 42.73 61.68 46.85 67.43 56.8 67.52 56.96"/>
        <polygon class="cls-2" points="67.52 56.96 61.68 67.08 56.05 76.84 50.21 86.96 50.11 86.79 44.37 76.84 24.93 43.18 36.61 43.18 50.21 66.73 55.84 56.96 47.88 43.18 45.69 39.38 22.74 39.38 16.9 29.27 14.71 25.48 5.84 10.11 0 0 34.63 0 40.47 10.11 45.02 17.99 45.62 19.03 49.34 25.48 37.66 25.48 28.79 10.11 17.52 10.11 26.39 25.48 28.58 29.27 51.53 29.27 52.08 30.22 57.37 39.38 59.31 42.73 61.68 46.85 67.43 56.8 67.52 56.96"/>
      </g>
    </g>
  </g>
</svg>