<svg width="24" height="24" viewBox="0 0 24 24" fill="none" xmlns="http://www.w3.org/2000/svg">
<circle cx="12" cy="12" r="10" fill="white"/>
<path d="M12 22C10.6167 22 9.31667 21.7373 8.1 21.212C6.88334 20.6867 5.825 19.9743 4.925 19.075C4.025 18.1757 3.31267 17.1173 2.788 15.9C2.26333 14.6827 2.00067 13.3827 2 12C1.99933 10.6173 2.262 9.31733 2.788 8.1C3.314 6.88267 4.02633 5.82433 4.925 4.925C5.82367 4.02567 6.882 3.31333 8.1 2.788C9.318 2.26267 10.618 2 12 2C13.382 2 14.682 2.26267 15.9 2.788C17.118 3.31333 18.1763 4.02567 19.075 4.925C19.9737 5.82433 20.6863 6.88267 21.213 8.1C21.7397 9.31733 22.002 10.6173 22 12C21.998 13.3827 21.7353 14.6827 21.212 15.9C20.6887 17.1173 19.9763 18.1757 19.075 19.075C18.1737 19.9743 17.1153 20.687 15.9 21.213C14.6847 21.739 13.3847 22.0013 12 22ZM10 17H13C13.55 17 14.021 16.8043 14.413 16.413C14.805 16.0217 15.0007 15.5507 15 15V13.5C15 13.0667 14.8583 12.7083 14.575 12.425C14.2917 12.1417 13.9333 12 13.5 12C13.9333 12 14.2917 11.8583 14.575 11.575C14.8583 11.2917 15 10.9333 15 10.5V9C15 8.45 14.8043 7.97933 14.413 7.588C14.0217 7.19667 13.5507 7.00067 13 7H10C9.71667 7 9.47933 7.096 9.288 7.288C9.09667 7.48 9.00067 7.71733 9 8C8.99933 8.28267 9.09534 8.52033 9.288 8.713C9.48067 8.90567 9.718 9.00133 10 9H13V11H12C11.7167 11 11.4793 11.096 11.288 11.288C11.0967 11.48 11.0007 11.7173 11 12C10.9993 12.2827 11.0953 12.5203 11.288 12.713C11.4807 12.9057 11.718 13.0013 12 13H13V15H10C9.71667 15 9.47933 15.096 9.288 15.288C9.09667 15.48 9.00067 15.7173 9 16C8.99933 16.2827 9.09534 16.5203 9.288 16.713C9.48067 16.9057 9.718 17.0013 10 17Z" fill="black"/>
</svg>
