<svg width="24" height="24" viewBox="0 0 24 24" fill="none" xmlns="http://www.w3.org/2000/svg">
<circle cx="12" cy="12" r="10" fill="white"/>
<path d="M12 22C10.6167 22 9.31667 21.7373 8.1 21.212C6.88334 20.6867 5.825 19.9743 4.925 19.075C4.025 18.1757 3.31267 17.1173 2.788 15.9C2.26333 14.6827 2.00067 13.3827 2 12C1.99933 10.6173 2.262 9.31733 2.788 8.1C3.314 6.88267 4.02633 5.82433 4.925 4.925C5.82367 4.02567 6.882 3.31333 8.1 2.788C9.318 2.26267 10.618 2 12 2C13.382 2 14.682 2.26267 15.9 2.788C17.118 3.31333 18.1763 4.02567 19.075 4.925C19.9737 5.82433 20.6863 6.88267 21.213 8.1C21.7397 9.31733 22.002 10.6173 22 12C21.998 13.3827 21.7353 14.6827 21.212 15.9C20.6887 17.1173 19.9763 18.1757 19.075 19.075C18.1737 19.9743 17.1153 20.687 15.9 21.213C14.6847 21.739 13.3847 22.0013 12 22ZM11.5 9V16C11.5 16.2833 11.596 16.521 11.788 16.713C11.98 16.905 12.2173 17.0007 12.5 17C12.7827 16.9993 13.0203 16.9033 13.213 16.712C13.4057 16.5207 13.5013 16.2833 13.5 16V8C13.5 7.71667 13.404 7.47933 13.212 7.288C13.02 7.09667 12.7827 7.00067 12.5 7H10.5C10.2167 7 9.97933 7.096 9.788 7.288C9.59667 7.48 9.50067 7.71733 9.5 8C9.49933 8.28267 9.59534 8.52033 9.788 8.713C9.98067 8.90567 10.218 9.00133 10.5 9H11.5Z" fill="black"/>
</svg>
