<svg width="16" height="20" viewBox="0 0 16 20" fill="none" xmlns="http://www.w3.org/2000/svg">
<path d="M1 18H15C15.2833 18 15.521 18.096 15.713 18.288C15.905 18.48 16.0007 18.7173 16 19C15.9993 19.2827 15.9033 19.5203 15.712 19.713C15.5207 19.9057 15.2833 20.0013 15 20H1C0.71667 20 0.479337 19.904 0.288004 19.712C0.0966702 19.52 0.000670115 19.2827 3.44827e-06 19C-0.000663218 18.7173 0.0953369 18.48 0.288004 18.288C0.48067 18.096 0.718003 18 1 18ZM8 15.375C7.85 15.375 7.70434 15.3417 7.563 15.275C7.42167 15.2083 7.30067 15.1083 7.2 14.975L2.25 8.625C2 8.29167 1.96667 7.93767 2.15 7.563C2.33334 7.18833 2.63334 7.00067 3.05 7H5V1C5 0.716667 5.096 0.479333 5.288 0.288C5.48 0.0966668 5.71734 0.000666667 6 0H10C10.2833 0 10.521 0.0960001 10.713 0.288C10.905 0.48 11.0007 0.717333 11 1V7H12.95C13.3667 7 13.6667 7.18767 13.85 7.563C14.0333 7.93833 14 8.29233 13.75 8.625L8.8 14.975C8.7 15.1083 8.579 15.2083 8.437 15.275C8.295 15.3417 8.14934 15.375 8 15.375Z" fill="#FFBFBF"/>
</svg>
